<svg width="36" height="29" viewBox="0 0 36 29" fill="none" xmlns="http://www.w3.org/2000/svg">
<path d="M7.46477 1.09733e-05C7.41511 -0.000384564 7.36611 0.00991867 7.3222 0.0299925C7.27829 0.0500663 7.24084 0.0792798 7.21322 0.115001C7.18561 0.150722 7.1687 0.191828 7.16401 0.234615C7.15932 0.277402 7.16701 0.320526 7.18638 0.360101L7.3585 0.711771L10.4043 6.8579C10.425 6.89971 10.458 6.93606 10.5001 6.9633C10.5422 6.99054 10.5918 7.00772 10.644 7.0131C10.6962 7.01848 10.7491 7.01188 10.7973 6.99396C10.8456 6.97604 10.8876 6.94743 10.9191 6.91101L16.5407 0.414503C16.574 0.376015 16.5943 0.330249 16.5993 0.282333C16.6043 0.234417 16.5938 0.186245 16.5689 0.143214C16.5441 0.100183 16.5059 0.0639939 16.4586 0.038701C16.4113 0.013408 16.3568 1.09733e-05 16.3012 1.09733e-05H7.46477ZM29.7811 1.68777L26.6919 7.9291C26.6725 7.96851 26.6647 8.01147 26.6691 8.05413C26.6736 8.0968 26.6902 8.13784 26.7175 8.17359C26.7448 8.20933 26.7819 8.23866 26.8255 8.25895C26.8691 8.27924 26.9178 8.28985 26.9673 8.28984H34.5256C34.579 8.28986 34.6314 8.27753 34.6774 8.25413C34.7234 8.23073 34.7613 8.19711 34.7873 8.15675C34.8132 8.11639 34.8263 8.07076 34.825 8.02458C34.8237 7.97841 34.8082 7.93337 34.78 7.89413L30.3102 1.65344C30.2813 1.61327 30.2403 1.5807 30.1915 1.55928C30.1427 1.53786 30.0881 1.52841 30.0336 1.53195C29.9791 1.53548 29.9267 1.55188 29.8822 1.57935C29.8377 1.60682 29.8027 1.64431 29.7811 1.68777ZM4.71685 1.65603L0.248497 7.89413C0.220344 7.93337 0.204826 7.97841 0.203549 8.02458C0.202272 8.07076 0.215282 8.11639 0.241233 8.15675C0.267184 8.19711 0.305132 8.23073 0.351145 8.25413C0.397158 8.27753 0.449564 8.28986 0.502933 8.28984H8.0612C8.11073 8.28979 8.15948 8.2791 8.20306 8.25873C8.24665 8.23837 8.28372 8.20895 8.31094 8.17314C8.33815 8.13732 8.35468 8.09622 8.35902 8.05351C8.36337 8.01081 8.3554 7.96784 8.33584 7.92846L5.24069 1.69036C5.21856 1.64798 5.18365 1.61155 5.13963 1.58487C5.09562 1.5582 5.04411 1.54227 4.99053 1.53876C4.93695 1.53525 4.88327 1.54429 4.83511 1.56492C4.78696 1.58555 4.74611 1.61703 4.71685 1.65603ZM27.786 1.09733e-05H18.3981C18.371 -0.000140674 18.3444 0.00626987 18.3213 0.0185177C18.2982 0.0307655 18.2795 0.0483622 18.2673 0.0693176C18.2552 0.0902731 18.2501 0.113752 18.2525 0.137098C18.255 0.160445 18.265 0.182728 18.2813 0.201428L24.2621 7.09624C24.2773 7.11395 24.2977 7.12786 24.3212 7.13657C24.3447 7.14529 24.3704 7.14849 24.3957 7.14586C24.4211 7.14324 24.4452 7.13487 24.4656 7.12161C24.486 7.10835 24.502 7.09066 24.512 7.07033L27.661 0.712418L27.9155 0.172284C27.9244 0.153744 27.9281 0.1336 27.9261 0.113576C27.9241 0.0935519 27.9165 0.0742454 27.904 0.0573102C27.8915 0.040375 27.8744 0.0263157 27.8543 0.0163364C27.8341 0.00635719 27.8115 0.000755399 27.7883 1.09733e-05H27.786ZM16.2413 26.942L9.5489 10.5249C9.52925 10.4772 9.49301 10.436 9.44517 10.4068C9.39732 10.3777 9.34023 10.3622 9.28174 10.3623H0.279179C0.227028 10.3622 0.175885 10.3747 0.131575 10.3985C0.0872658 10.4223 0.0515727 10.4564 0.0285627 10.4969C0.00555272 10.5374 -0.00384865 10.5827 0.00142975 10.6276C0.00670815 10.6725 0.0264541 10.7152 0.0584176 10.7509L16.2226 28.8726C16.2773 28.9339 16.3554 28.9765 16.4429 28.9927C16.5305 29.009 16.6219 28.9978 16.7008 28.9613C16.7802 28.9251 16.842 28.8655 16.8748 28.7932C16.9077 28.7209 16.9094 28.6408 16.8797 28.5675L16.2413 26.942ZM34.7478 10.3623H25.7453C25.6871 10.3623 25.6304 10.3779 25.5829 10.407C25.5354 10.4362 25.4996 10.4773 25.4804 10.5249L18.1316 28.5397C18.1008 28.6153 18.1021 28.698 18.1352 28.7729C18.1684 28.8478 18.2314 28.91 18.3127 28.9484C18.3941 28.9865 18.4886 28.9984 18.5792 28.9819C18.6698 28.9654 18.7506 28.9216 18.8074 28.8583L34.9686 10.7509C35.0006 10.7152 35.0203 10.6725 35.0256 10.6276C35.0309 10.5827 35.0215 10.5374 34.9985 10.4969C34.9755 10.4564 34.9398 10.4223 34.8955 10.3985C34.8511 10.3747 34.8 10.3622 34.7478 10.3623ZM17.753 3.0394L21.9437 7.87535C21.9771 7.91384 21.9974 7.9596 22.0024 8.00752C22.0074 8.05544 21.9968 8.10361 21.972 8.14664C21.9471 8.18967 21.9089 8.22586 21.8616 8.25115C21.8143 8.27644 21.7598 8.28984 21.7042 8.28984H13.3228C13.2672 8.28984 13.2127 8.27644 13.1654 8.25115C13.1181 8.22586 13.0799 8.18967 13.0551 8.14664C13.0302 8.10361 13.0197 8.05544 13.0247 8.00752C13.0297 7.9596 13.05 7.91384 13.0833 7.87535L17.274 3.0394C17.3019 3.00723 17.3381 2.98111 17.3796 2.96313C17.4212 2.94514 17.467 2.93578 17.5135 2.93578C17.56 2.93578 17.6058 2.94514 17.6474 2.96313C17.6889 2.98111 17.7251 3.00723 17.753 3.0394ZM17.2291 23.1364L12.1629 10.7075C12.147 10.6684 12.1421 10.6266 12.1487 10.5856C12.1553 10.5446 12.1732 10.5056 12.2008 10.4718C12.2284 10.438 12.265 10.4104 12.3075 10.3913C12.35 10.3723 12.3971 10.3623 12.445 10.3623H22.582C22.6299 10.3623 22.677 10.3723 22.7195 10.3913C22.762 10.4104 22.7986 10.438 22.8262 10.4718C22.8539 10.5056 22.8717 10.5446 22.8783 10.5856C22.8849 10.6266 22.8801 10.6684 22.8642 10.7075L17.7956 23.1364C17.775 23.1869 17.7367 23.2305 17.6862 23.2614C17.6357 23.2923 17.5754 23.3089 17.5135 23.3089C17.4517 23.3089 17.3913 23.2923 17.3408 23.2614C17.2903 23.2305 17.2521 23.1869 17.2314 23.1364H17.2291Z" fill="#083073"/>
</svg>
