<svg width="34" height="32" viewBox="0 0 34 32" fill="none" xmlns="http://www.w3.org/2000/svg">
<path d="M32.1211 0.942842C31.815 0.643306 31.4503 0.405683 31.0483 0.243815C30.6463 0.0819466 30.215 -0.000931463 29.7796 7.89655e-06H20.7024C20.1069 0.00108179 19.5359 0.229247 19.1133 0.634992L0.966943 18.1846C0.347752 18.7847 0 19.598 0 20.4459C0 21.2938 0.347752 22.1071 0.966943 22.7073L9.60631 31.0642C10.2269 31.6635 11.068 32 11.9448 32C12.8217 32 13.6628 31.6635 14.2834 31.0642L32.4224 13.5218C32.8427 13.1137 33.0794 12.5615 33.081 11.9854V3.19993C33.0837 2.78094 33.0002 2.36561 32.8354 1.97812C32.6706 1.59063 32.4278 1.23871 32.1211 0.942842ZM25.9923 9.14264C25.525 9.14264 25.0681 9.00859 24.6795 8.75744C24.291 8.50629 23.9881 8.14932 23.8093 7.73167C23.6304 7.31402 23.5836 6.85445 23.6748 6.41107C23.766 5.9677 23.991 5.56043 24.3215 5.24078C24.6519 4.92112 25.073 4.70343 25.5313 4.61524C25.9897 4.52705 26.4648 4.57231 26.8966 4.74531C27.3283 4.91831 27.6973 5.21126 27.957 5.58714C28.2166 5.96301 28.3552 6.40492 28.3552 6.85698C28.3552 7.46318 28.1063 8.04454 27.6631 8.47319C27.22 8.90183 26.619 9.14264 25.9923 9.14264Z" fill="#083073"/>
</svg>
